<?xml version="1.0" encoding="UTF-8"?>
<svg version="1.1" xmlns="http://www.w3.org/2000/svg" width="1774" height="887">
<path d="M0 0 C585.42 0 1170.84 0 1774 0 C1774 292.71 1774 585.42 1774 887 C1188.58 887 603.16 887 0 887 C0 594.29 0 301.58 0 0 Z " fill="#FCF2EA" transform="translate(0,0)"/>
<path d="M0 0 C2.46048853 -0.00087271 4.92097688 -0.0026249 7.38146424 -0.00517833 C12.72028783 -0.00871194 18.0590545 -0.00606663 23.39786911 0.00209808 C31.33638936 0.01420469 39.2748816 0.01476631 47.21340941 0.01301411 C60.56946399 0.01039058 73.92549873 0.01705286 87.28154755 0.02904892 C100.50138192 0.04089214 113.72120803 0.04858266 126.94104767 0.05075455 C127.76371278 0.05089203 128.58637789 0.05102951 129.43397225 0.05117115 C133.61205142 0.05184784 137.79013059 0.0524506 141.96820977 0.0530249 C171.54409941 0.05722319 201.11997826 0.07069085 230.69586182 0.08963013 C259.42437686 0.10800552 288.15288895 0.12216955 316.88140869 0.13064575 C318.21024504 0.13104033 318.21024504 0.13104033 319.56592656 0.13144288 C328.46259066 0.13407997 337.35925478 0.13663159 346.25591892 0.1391206 C364.37866127 0.14419272 382.50140343 0.14983522 400.62414551 0.15582275 C401.87396492 0.15623462 401.87396492 0.15623462 403.14903321 0.15665481 C458.76816289 0.17504911 514.38728645 0.20678035 570.00640869 0.24050903 C568.1136419 4.16656299 565.74035278 7.66997716 563.25640869 11.24050903 C562.77470215 11.93692505 562.29299561 12.63334106 561.79669189 13.3508606 C556.16130643 21.48558832 550.47886849 29.58767949 544.79595947 37.6892395 C536.88790542 48.96334112 528.99446866 60.24747238 521.13140869 71.55300903 C520.13657471 72.98338501 520.13657471 72.98338501 519.12164307 74.44265747 C515.67479044 79.39979769 512.23017592 84.35848213 508.78765869 89.31863403 C497.02099273 106.26455635 497.02099273 106.26455635 491.81890869 113.49050903 C487.99650683 118.80473608 484.30518264 124.19770174 480.63140869 129.61550903 C476.0606364 136.34796093 471.31903166 142.90660345 466.39459229 149.38357544 C462.00664297 155.17845915 457.85989909 161.12189126 453.77203369 167.13113403 C453.35207587 167.71957474 452.93211805 168.30801544 452.49943423 168.91428769 C450.90366161 171.28036641 450.90366161 171.28036641 449.64538121 174.21466339 C447.76404322 177.87366912 446.03233074 180.43325823 443.00640869 183.24050903 C436.78275866 185.05726098 430.69842474 184.8380537 424.26000977 184.72393799 C422.32042163 184.7334709 420.38085342 184.74825694 418.44134068 184.76783645 C413.11551219 184.80630558 407.79242181 184.76992889 402.46677351 184.72125077 C396.72133143 184.68176879 390.97619397 184.71148445 385.23071289 184.73254395 C373.97369365 184.76280091 362.71773178 184.7289365 351.46084389 184.67344214 C338.34225269 184.61110074 325.22388951 184.61156052 312.10517803 184.61447762 C287.97590449 184.61757303 263.84716134 184.55734453 239.71807424 184.46746298 C217.72393624 184.38583501 195.73018913 184.3482905 173.73590088 184.35232544 C172.32534324 184.35256791 170.9147856 184.35281007 169.50422797 184.35305192 C168.45817012 184.35323507 168.45817012 184.35323507 167.39097978 184.35342193 C163.87999091 184.35402677 160.36900204 184.35457025 156.85801315 184.35504341 C156.16525009 184.35514369 155.47248703 184.35524397 154.75873115 184.35534729 C132.400615 184.35801508 110.04257667 184.31524462 87.68451653 184.26886634 C78.55265947 184.25081632 69.42083624 184.24439454 60.28896332 184.24167252 C49.14189228 184.23756387 37.99512959 184.21056022 26.8481892 184.15567566 C21.16670139 184.12811528 15.48560573 184.1096392 9.80404663 184.11724091 C4.58971364 184.12387867 -0.62375664 184.10229852 -5.83791003 184.05934976 C-7.71146939 184.04859458 -9.58511912 184.04756415 -11.45868054 184.05795349 C-35.19951122 184.17489475 -58.32152053 176.54147088 -75.99359131 160.24050903 C-76.84437256 159.4580481 -77.69515381 158.67558716 -78.57171631 157.86941528 C-96.17052355 140.98193708 -105.60867583 119.30720404 -107.19671631 95.15066528 C-107.61290372 69.86728015 -98.65955261 47.0388185 -81.31781006 28.60769653 C-80.55081787 27.82652466 -79.78382568 27.04535278 -78.99359131 26.24050903 C-78.25753662 25.47996216 -77.52148193 24.71941528 -76.76312256 23.93582153 C-67.05250752 14.53425454 -54.82548567 8.24907638 -41.99359131 4.24050903 C-41.02421631 3.86925903 -40.05484131 3.49800903 -39.05609131 3.11550903 C-26.20944267 -0.55496201 -13.24273098 -0.03488855 0 0 Z " fill="#11182A" transform="translate(385.99359130859375,354.7594909667969)"/>
<path d="M0 0 C1.77927384 -0.00722712 3.55853437 -0.01883554 5.33775443 -0.03444397 C10.22482273 -0.06456989 15.10979579 -0.03230468 19.99669921 0.01016927 C25.26832526 0.04511991 30.53974168 0.02239564 35.81141663 0.00683594 C46.14070652 -0.01452394 56.46918181 0.01741704 66.79834757 0.06711246 C78.83520853 0.12297388 90.87190444 0.12565848 102.90887352 0.12599848 C124.3987077 0.12837437 145.8881682 0.178341 167.37785339 0.25534058 C188.20862817 0.32993057 209.03913123 0.37252427 229.87004089 0.37838745 C231.79207004 0.37893588 231.79207004 0.37893588 233.75292806 0.3794954 C235.67169343 0.38003231 235.67169343 0.38003231 237.62922174 0.38058007 C240.20506116 0.38131093 242.78090058 0.38205568 245.35674 0.38281441 C246.62719679 0.38318544 247.89765358 0.38355647 249.20660906 0.38393874 C269.0790587 0.39109417 288.95146665 0.42801434 308.82387367 0.46780089 C316.01438795 0.48181326 323.20489235 0.49139762 330.39541731 0.49772359 C341.81239838 0.50785589 353.22919094 0.53089931 364.64607535 0.58032419 C369.85940852 0.60265652 375.07255847 0.61900339 380.28594398 0.61805725 C385.07013147 0.61743489 389.85388718 0.63558545 394.63796159 0.66799329 C396.35742172 0.67654063 398.07693052 0.67862648 399.79640315 0.67314114 C414.91458532 0.63176302 429.65903269 2.68723851 443.59098816 8.91696167 C444.76455872 9.42743042 444.76455872 9.42743042 445.96183777 9.94821167 C465.50179622 18.72752518 483.3283456 33.11312058 494.84098816 51.22946167 C495.32825378 51.92555542 495.81551941 52.62164917 496.31755066 53.33883667 C507.00434012 69.45474377 510.90962709 87.86293506 511.09098816 106.85446167 C511.10065613 107.80885132 511.1103241 108.76324097 511.12028503 109.74655151 C511.0693759 120.30110503 509.20099952 129.62213839 504.84098816 139.22946167 C504.33632019 140.41282104 504.33632019 140.41282104 503.82145691 141.62008667 C495.65401686 159.51341822 481.13335909 172.32846385 462.84098816 179.22946167 C452.57436868 182.92423328 442.20504555 184.538207 431.3200655 184.47555733 C430.31629786 184.47786502 429.31253022 184.4801727 428.27834538 184.48255032 C424.9299617 184.48782516 421.58177211 184.47888713 418.23339844 184.4699707 C415.80264656 184.47084328 413.37189486 184.47259523 410.94114417 184.47514904 C405.66419427 184.47868436 400.38730193 184.47603352 395.1103611 184.46787262 C387.26383021 184.45577162 379.41732767 184.45520388 371.57078915 184.4569566 C358.36983441 184.4595808 345.16889973 184.45291525 331.96795082 184.44092178 C318.90079969 184.42908036 305.83365693 184.4213884 292.76650047 184.41921616 C291.95347105 184.41907868 291.14044163 184.4189412 290.30277495 184.41879955 C286.17366714 184.41812287 282.04455932 184.41752011 277.91545149 184.4169458 C248.68286102 184.41274702 219.45028147 184.39927798 190.21769714 184.38034058 C161.8218644 184.36196649 133.42603464 184.34780182 105.03019714 184.33932495 C104.15463311 184.3390619 103.27906908 184.33879885 102.3769728 184.33852782 C93.58405289 184.33589074 84.79113295 184.33333912 75.99821299 184.3308501 C58.08664826 184.32577793 40.17508373 184.32013542 22.26351929 184.31414795 C21.02825157 184.31373608 21.02825157 184.31373608 19.76802896 184.31331589 C-35.20765588 184.29492022 -90.18333453 184.26318883 -145.15901184 184.22946167 C-143.66212708 180.29640617 -141.95397787 177.4230548 -139.34651184 174.10446167 C-134.53995162 167.8387671 -130.0921179 161.36318504 -125.67732239 154.81686401 C-122.97261674 150.82025395 -120.21196644 146.97138531 -117.15901184 143.22946167 C-115.68635767 141.21904053 -114.22947373 139.19702162 -112.78401184 137.16696167 C-112.36119934 136.57334839 -111.93838684 135.97973511 -111.50276184 135.36813354 C-107.08016321 129.14490547 -102.71126441 122.88400236 -98.33992004 116.62472534 C-94.91302154 111.72149528 -91.46238707 106.83731393 -87.97151184 101.97946167 C-84.47039316 97.10535527 -81.04783069 92.18225996 -77.65901184 87.22946167 C-74.27018785 82.27665587 -70.84735409 77.35377173 -67.34651184 72.47946167 C-58.55936622 60.23826605 -49.94449341 47.87745229 -41.47151184 35.41696167 C-37.11130942 29.00881534 -32.65304544 22.69098065 -28.02351379 16.47433472 C-27.61705627 15.92817505 -27.21059875 15.38201538 -26.79182434 14.81930542 C-26.385469 14.2990139 -25.97911367 13.77872238 -25.56044453 13.24266446 C-24.0714276 11.22093182 -24.0714276 11.22093182 -22.97389776 8.73461425 C-17.73076112 -1.15050331 -9.92570245 -0.16377501 0 0 Z " fill="#03A99B" transform="translate(987.1590118408203,353.7705383300781)"/>
<path d="M0 0 C12.21 0 24.42 0 37 0 C39.7970468 8.95054977 42.55749371 17.78492149 45.0078125 26.81640625 C45.88553901 29.63273345 46.97906567 32.22996 48.17041016 34.92260742 C49.98170128 39.45829788 51.24742723 44.19358745 52.625 48.875 C53.2393193 50.95657779 53.85635576 53.03735629 54.4765625 55.1171875 C54.74549316 56.03097168 55.01442383 56.94475586 55.29150391 57.88623047 C55.81217612 59.96075152 55.81217612 59.96075152 57 61 C57.32162109 59.96931396 57.64324219 58.93862793 57.97460938 57.87670898 C64.03451494 38.47708025 70.17991573 19.14869813 77 0 C89.21 0 101.42 0 114 0 C114 31.35 114 62.7 114 95 C105.75 95 97.5 95 89 95 C88.67 76.85 88.34 58.7 88 40 C86.02 46.27 84.04 52.54 82 59 C80.31043357 64.14458469 78.61948443 69.28729476 76.90258789 74.42260742 C76.16779217 76.62147546 75.43633737 78.821438 74.70507812 81.02148438 C74.23456808 82.43235607 73.7638727 83.84316598 73.29296875 85.25390625 C72.8755542 86.50502197 72.45813965 87.7561377 72.02807617 89.04516602 C71 92 71 92 70 94 C61.09 94 52.18 94 43 94 C33.07507591 64.401758 33.07507591 64.401758 29.4375 52.875 C29.1988623 52.11985107 28.96022461 51.36470215 28.71435547 50.58666992 C27.71787362 47.40393804 26.80931308 44.23725232 26 41 C25.67 58.82 25.34 76.64 25 95 C16.75 95 8.5 95 0 95 C0 63.65 0 32.3 0 0 Z " fill="#F7EFE8" transform="translate(721,400)"/>
<path d="M0 0 C55.37046371 0 55.37046371 0 70.3125 13.75 C78.36071506 22.25346763 81.39264843 32.82722946 81.3125 44.3125 C81.30686035 45.15482178 81.3012207 45.99714355 81.29541016 46.86499023 C81.06533693 58.64770093 77.22757049 67.61074718 69.75 76.75 C49.15620338 93.59946996 26.67633411 89 0 89 C0 59.63 0 30.26 0 0 Z " fill="#0E1A2C" transform="translate(958,406)"/>
<path d="M0 0 C24.09 0 48.18 0 73 0 C73 7.59 73 15.18 73 23 C57.16 23 41.32 23 25 23 C25 27.29 25 31.58 25 36 C39.19 36 53.38 36 68 36 C68 43.26 68 50.52 68 58 C53.81 58 39.62 58 25 58 C25 62.29 25 66.58 25 71 C40.84 71 56.68 71 73 71 C73 78.92 73 86.84 73 95 C48.91 95 24.82 95 0 95 C0 63.65 0 32.3 0 0 Z " fill="#F5EDE6" transform="translate(431,400)"/>
<path d="M0 0 C1.49273438 -0.0309375 1.49273438 -0.0309375 3.015625 -0.0625 C13.86902666 -0.11917573 23.18521454 2.60133858 31.875 9.25 C38.18846852 15.66980062 40.875 22.33885487 40.875 31.25 C32.625 31.25 24.375 31.25 15.875 31.25 C15.215 29.27 14.555 27.29 13.875 25.25 C9.18946568 21.8951008 4.79324838 21.78838674 -0.75 21.875 C-1.50023437 21.86339844 -2.25046875 21.85179687 -3.0234375 21.83984375 C-6.28963838 21.85721716 -8.7214962 22.03693491 -11.6328125 23.57421875 C-13.45013095 25.27514318 -13.45013095 25.27514318 -13.375 28.4375 C-13.25125 29.8296875 -13.25125 29.8296875 -13.125 31.25 C-9.06197272 33.45857913 -5.54301719 34.75558026 -0.984375 35.49609375 C0.16933594 35.69396484 1.32304688 35.89183594 2.51171875 36.09570312 C4.9047334 36.48764012 7.29796044 36.87828272 9.69140625 37.26757812 C20.74656571 39.16749151 32.23074063 41.97704887 39.4453125 51.2734375 C44.05936694 58.36589832 44.62644633 64.84650157 43.875 73.25 C41.9651565 80.34370444 37.85228549 86.59366414 31.72265625 90.6875 C17.63274043 98.36045254 -0.88331381 99.94806624 -16.3125 95.625 C-25.41351499 92.29962914 -33.51704244 87.04225343 -38.15625 78.30859375 C-40.33625492 73.1512673 -40.125 70.4338842 -40.125 64.25 C-32.205 64.25 -24.285 64.25 -16.125 64.25 C-13.125 70.25 -13.125 70.25 -13.125 72.25 C-5.33591421 75.52961507 2.46678734 76.42474478 10.875 75.25 C13.4716276 73.74700382 15.75066355 72.37433645 17.875 70.25 C18.37559916 67.83517587 18.37559916 67.83517587 17.875 65.25 C14.13987338 62.45387169 10.60661939 61.57709865 6.0625 60.75 C5.4130542 60.6260083 4.7636084 60.5020166 4.09448242 60.37426758 C0.65741846 59.72387881 -2.7854836 59.14100284 -6.2421875 58.60546875 C-17.0404699 56.87567814 -28.19080899 54.30356562 -35.01171875 45.0078125 C-39.68083714 37.63552031 -40.13079838 30.93468213 -39.125 22.25 C-36.97390941 14.90044047 -32.57640006 9.33371452 -26.125 5.25 C-22.53299087 3.61817314 -18.9131525 2.34409373 -15.125 1.25 C-14.51769043 1.0742041 -13.91038086 0.8984082 -13.28466797 0.71728516 C-8.93062444 -0.2247948 -4.43696653 0.02246565 0 0 Z " fill="#F7EFE8" transform="translate(554.125,398.75)"/>
<path d="M0 0 C0.89847656 0.44730469 1.79695313 0.89460938 2.72265625 1.35546875 C10.81228543 5.79940349 16.01642172 11.72641435 20 20 C20.1015625 22.7109375 20.1015625 22.7109375 20 25 C13.01855181 26.69214979 6.15595346 28.29843593 -1 29 C-1.27972656 28.46890625 -1.55945312 27.9378125 -1.84765625 27.390625 C-2.24855469 26.68421875 -2.64945313 25.9778125 -3.0625 25.25 C-3.44535156 24.55390625 -3.82820313 23.8578125 -4.22265625 23.140625 C-7.21012145 19.54253505 -10.64343355 17.41856479 -15.21850586 16.60595703 C-17.6381159 16.42773641 -20.01189052 16.40474753 -22.4375 16.4375 C-23.24509766 16.41365234 -24.05269531 16.38980469 -24.88476562 16.36523438 C-32.12803177 16.38274429 -36.83076886 18.98984223 -42.0234375 23.921875 C-47.40167203 31.19648124 -48.93572893 39.03511311 -48 48 C-46.72356067 55.44976409 -43.8356507 61.09352087 -38 66 C-33.02390583 69.14814121 -28.90489471 69.51205397 -23.1875 69.4375 C-22.38940918 69.43065186 -21.59131836 69.42380371 -20.76904297 69.41674805 C-13.35236339 69.21447497 -7.91315205 67.91315205 -2.5625 62.5625 C-0.71851645 59.69813427 -0.71851645 59.69813427 1 55 C-6.59 55 -14.18 55 -22 55 C-22 49.39 -22 43.78 -22 38 C-7.48 38 7.04 38 22 38 C22 54.83 22 71.66 22 89 C16.39 89 10.78 89 5 89 C5 85.7 5 82.4 5 79 C4.3709375 79.47050781 3.741875 79.94101562 3.09375 80.42578125 C2.2378125 81.04839844 1.381875 81.67101562 0.5 82.3125 C-0.75296875 83.23482422 -0.75296875 83.23482422 -2.03125 84.17578125 C-9.1428684 88.54568361 -15.39756621 89.52790433 -23.6875 89.4375 C-25.1418042 89.42614014 -25.1418042 89.42614014 -26.62548828 89.41455078 C-39.53278285 89.11939148 -49.10485286 85.84917949 -58.34375 76.671875 C-63.80424396 70.89226126 -69 65.31230543 -69 57 C-69.66 57 -70.32 57 -71 57 C-74.71682601 49.56634798 -72.80700306 35.03031758 -70.4375 27.375 C-64.71879402 13.30898985 -55.79385313 4.19668228 -42 -2 C-29.55957679 -6.53363682 -11.80942618 -5.95077169 0 0 Z " fill="#0E1A2C" transform="translate(1157,406)"/>
<path d="M0 0 C9.9 0 19.8 0 30 0 C32.75073582 5.50147163 35.06177223 10.61298593 37 16.375 C38.57737626 20.95727805 40.15178471 25.51807792 42 30 C43.80086868 34.3863482 45.37480275 38.83734721 46.9375 43.3125 C50.02993446 52.15614944 53.36017163 60.89181116 56.83203125 69.59375 C57.14922119 70.39498291 57.46641113 71.19621582 57.79321289 72.02172852 C58.416154 73.5945793 59.044001 75.16549878 59.67749023 76.73413086 C59.96438721 77.45995361 60.25128418 78.18577637 60.546875 78.93359375 C60.80307617 79.57353271 61.05927734 80.21347168 61.32324219 80.87280273 C62.16185292 83.50873901 62.54525243 86.27151458 63 89 C55.41 89 47.82 89 40 89 C36.41176471 80.62745098 36.41176471 80.62745098 34.8125 76.6875 C34.29623047 75.42486328 34.29623047 75.42486328 33.76953125 74.13671875 C33 72 33 72 33 70 C21.12 70 9.24 70 -3 70 C-3.99 73.3 -4.98 76.6 -6 80 C-6.99 82.97 -7.98 85.94 -9 89 C-16.92 89 -24.84 89 -33 89 C-32.15001049 83.90006295 -30.87487958 79.73368358 -29 75 C-28.20819018 72.91672107 -27.41653616 70.83338292 -26.625 68.75 C-24.19744324 62.44991222 -21.61585491 56.22367726 -19 50 C-13.92274743 38.0309706 -13.92274743 38.0309706 -9.61328125 25.7734375 C-9 24 -9 24 -7.4375 20.9375 C-5.67271488 17.33119998 -4.8771909 13.91362094 -4 10 C-3.34 10 -2.68 10 -2 10 C-1.34 6.7 -0.68 3.4 0 0 Z " fill="#0E1B2C" transform="translate(1330,406)"/>
<path d="M0 0 C26.73 0 53.46 0 81 0 C81 7.59 81 15.18 81 23 C71.43 23 61.86 23 52 23 C52 46.43 52 69.86 52 94 C44.08 94 36.16 94 28 94 C28 70.57 28 47.14 28 23 C18.76 23 9.52 23 0 23 C0 15.41 0 7.82 0 0 Z " fill="#F9F1EA" transform="translate(342,400)"/>
<path d="M0 0 C8.58 0 17.16 0 26 0 C26 23.43 26 46.86 26 71 C39.86 71 53.72 71 68 71 C68 78.92 68 86.84 68 95 C59.28155659 95.02255338 50.56313241 95.04091645 41.84466648 95.05181217 C37.79674258 95.05704041 33.74883959 95.06413699 29.70092773 95.07543945 C25.79764029 95.08627043 21.89437301 95.09227728 17.9910717 95.09487724 C16.49866353 95.09673111 15.00625652 95.100351 13.51385689 95.10573006 C11.43051861 95.11294331 9.34726469 95.11399083 7.26391602 95.11352539 C6.07588882 95.115746 4.88786163 95.11796661 3.66383362 95.12025452 C1 95 1 95 0 94 C-0.09525367 91.07805335 -0.12552736 88.17979671 -0.11352539 85.25756836 C-0.11367142 84.3405867 -0.11381744 83.42360504 -0.1139679 82.47883606 C-0.1132684 79.43248164 -0.10547428 76.38618755 -0.09765625 73.33984375 C-0.0957922 71.23377007 -0.09436824 69.12769597 -0.09336853 67.0216217 C-0.08954231 61.46657117 -0.07971114 55.91154659 -0.06866455 50.35650635 C-0.05845267 44.6927526 -0.05387139 39.02899467 -0.04882812 33.36523438 C-0.03808896 22.24347631 -0.02049132 11.12174437 0 0 Z " fill="#F3EAE4" transform="translate(606,400)"/>
<path d="M0 0 C25.41 0 50.82 0 77 0 C77 6.6 77 13.2 77 20 C68.09 20 59.18 20 50 20 C50 42.77 50 65.54 50 89 C42.08 89 34.16 89 26 89 C26 66.23 26 43.46 26 20 C17.42 20 8.84 20 0 20 C0 13.4 0 6.8 0 0 Z " fill="#0E1E2E" transform="translate(1229,406)"/>
<path d="M0 0 C7.26 0 14.52 0 22 0 C22 22.77 22 45.54 22 69 C35.53 69 49.06 69 63 69 C63 75.6 63 82.2 63 89 C42.21 89 21.42 89 0 89 C0 59.63 0 30.26 0 0 Z " fill="#0D182A" transform="translate(1404,406)"/>
<path d="M0 0 C8.25 0 16.5 0 25 0 C25 31.02 25 62.04 25 94 C16.75 94 8.5 94 0 94 C0 62.98 0 31.96 0 0 Z " fill="#F8F0EA" transform="translate(684,400)"/>
<path d="M0 0 C7.59 0 15.18 0 23 0 C23 29.37 23 58.74 23 89 C15.41 89 7.82 89 0 89 C0 59.63 0 30.26 0 0 Z " fill="#0D1D2E" transform="translate(1194,406)"/>
<path d="M0 0 C7.26 0 14.52 0 22 0 C22 29.37 22 58.74 22 89 C14.74 89 7.48 89 0 89 C0 59.63 0 30.26 0 0 Z " fill="#0D1A2B" transform="translate(1051,406)"/>
<path d="M0 0 C24.45614035 0 24.45614035 0 31.0234375 5.78125 C31.46945312 6.3484375 31.91546875 6.915625 32.375 7.5 C32.83648438 8.0671875 33.29796875 8.634375 33.7734375 9.21875 C38.24555627 15.71329191 38.8037382 23.30222568 38 31 C36.34413782 37.43420733 33.62370763 43.19955758 28 47 C21 50 21 50 0 50 C0 33.5 0 17 0 0 Z " fill="#02A798" transform="translate(980,426)"/>
<path d="M0 0 C195.03 0 390.06 0 591 0 C589.515 2.475 589.515 2.475 588 5 C587.34 4.67 586.68 4.34 586 4 C586 3.01 586 2.02 586 1 C392.62 1 199.24 1 0 1 C0 0.67 0 0.34 0 0 Z " fill="#161F33" transform="translate(364,357)"/>
<path d="M0 0 C0.66 0 1.32 0 2 0 C2.38671875 1.11117188 2.7734375 2.22234375 3.171875 3.3671875 C3.69741677 4.86996658 4.223494 6.37255847 4.75 7.875 C5.15726318 9.03841919 5.15726318 9.03841919 5.57275391 10.2253418 C7.3373801 15.22859447 9.21723107 20.15339657 11.3359375 25.01953125 C12 27 12 27 12 31 C4.74 31 -2.52 31 -10 31 C-8.88925081 23.2247557 -8.88925081 23.2247557 -7.25 20 C-4.20597972 13.56503066 -2.17485831 6.76523547 0 0 Z " fill="#059F90" transform="translate(1344,427)"/>
<path d="M0 0 C2.55954153 2.55954153 3.09825529 4.80531275 4.1875 8.25 C4.55230469 9.36890625 4.91710937 10.4878125 5.29296875 11.640625 C6.03438148 15.16335952 5.82654582 17.52534879 5 21 C4.01 21.33 3.02 21.66 2 22 C1.67 29.26 1.34 36.52 1 44 C0.67 44 0.34 44 0 44 C0 29.48 0 14.96 0 0 Z " fill="#252837" transform="translate(746,439)"/>
<path d="M0 0 C0.33 0 0.66 0 1 0 C1 16.5 1 33 1 50 C0.67 50 0.34 50 0 50 C-0.33 37.46 -0.66 24.92 -1 12 C-1.66 11.67 -2.32 11.34 -3 11 C-2.01 7.37 -1.02 3.74 0 0 Z " fill="#28303F" transform="translate(807,444)"/>
<path d="M0 0 C0.99 0.33 1.98 0.66 3 1 C2.84152588 1.81549316 2.68305176 2.63098633 2.51977539 3.47119141 C1.93021731 7.47376184 1.77277651 11.42409405 1.68359375 15.4609375 C1.66281265 16.25150543 1.64203156 17.04207336 1.62062073 17.8565979 C1.55564418 20.36265017 1.49648357 22.86880024 1.4375 25.375 C1.39426532 27.08204105 1.35064951 28.78907249 1.30664062 30.49609375 C1.2000166 34.66396426 1.09860559 38.83193239 1 43 C0.67 43 0.34 43 0 43 C-0.14547716 39.10809917 -0.28771642 35.2160933 -0.42724609 31.32397461 C-0.49805356 29.3663144 -0.57125854 27.40874137 -0.64453125 25.45117188 C-1.29581164 7.16880085 -1.29581164 7.16880085 -1 1 C-0.67 0.67 -0.34 0.34 0 0 Z " fill="#FBF9F6" transform="translate(811,439)"/>
<path d="M0 0 C6.6 0 13.2 0 20 0 C19.67 0.66 19.34 1.32 19 2 C17.41058594 1.98259766 17.41058594 1.98259766 15.7890625 1.96484375 C14.40104342 1.95546524 13.01302245 1.94636511 11.625 1.9375 C10.57699219 1.92493164 10.57699219 1.92493164 9.5078125 1.91210938 C5.62704624 1.8164558 5.62704624 1.8164558 2 3 C1.34 3.99 0.68 4.98 0 6 C0 4.02 0 2.04 0 0 Z " fill="#0AB6A1" transform="translate(1279,426)"/>
<path d="M0 0 C0.99 0 1.98 0 3 0 C3 4.29 3 8.58 3 13 C2.01 13 1.02 13 0 13 C0 8.71 0 4.42 0 0 Z " fill="#232937" transform="translate(456,458)"/>
<path d="M0 0 C8.58 0 17.16 0 26 0 C25.01 1.65 24.02 3.3 23 5 C22.34 4.67 21.68 4.34 21 4 C21 3.01 21 2.02 21 1 C14.07 1 7.14 1 0 1 C0 0.67 0 0.34 0 0 Z " fill="#1F273A" transform="translate(929,357)"/>
<path d="M0 0 C1.5625 1.125 1.5625 1.125 3 3 C2.6875 6.1875 2.6875 6.1875 2 9 C1.01 9.33 0.02 9.66 -1 10 C-2.38125018 7.23749964 -2.19079306 5.05268901 -2 2 C-1.34 1.34 -0.68 0.68 0 0 Z " fill="#1F2538" transform="translate(749,451)"/>
<path d="M0 0 C3.3 0.33 6.6 0.66 10 1 C10 1.33 10 1.66 10 2 C8.948125 2.04125 7.89625 2.0825 6.8125 2.125 C1.81527945 3.27190308 0.87714602 4.90224658 -2 9 C-2.99 8.34 -3.98 7.68 -5 7 C-3.35 4.69 -1.7 2.38 0 0 Z " fill="#13B4A9" transform="translate(969,356)"/>
<path d="M0 0 C0.66 0.33 1.32 0.66 2 1 C0.89718873 2.27200971 -0.20730769 3.54255853 -1.3125 4.8125 C-1.92738281 5.52019531 -2.54226563 6.22789062 -3.17578125 6.95703125 C-4.73334335 8.70136739 -6.32658875 10.36778041 -8 12 C-8.99 11.67 -9.98 11.34 -11 11 C-7.37 7.37 -3.74 3.74 0 0 Z " fill="#282C37" transform="translate(312,376)"/>
<path d="M0 0 C0.66 0 1.32 0 2 0 C2.042721 1.66611905 2.04063832 3.33382885 2 5 C1.67 5.33 1.34 5.66 1 6 C0.77428816 7.41120902 0.60611651 8.83176043 0.46484375 10.25390625 C0.37783203 11.10791016 0.29082031 11.96191406 0.20117188 12.84179688 C0.11416016 13.73962891 0.02714844 14.63746094 -0.0625 15.5625 C-0.15337891 16.46419922 -0.24425781 17.36589844 -0.33789062 18.29492188 C-0.56253923 20.52958434 -0.78305769 22.76457839 -1 25 C-1.33 25 -1.66 25 -2 25 C-2.24911914 16.41922945 -1.69882188 8.41826913 0 0 Z " fill="#4E525B" transform="translate(281,428)"/>
<path d="M0 0 C-1.3487075 2.95803481 -2.89568549 5.20796367 -5.0625 7.625 C-6.66378483 9.4181258 -7.92328158 10.84656316 -9 13 C-9.66 13 -10.32 13 -11 13 C-9.75810874 8.58438665 -5.13864596 0 0 0 Z " fill="#0A9A8B" transform="translate(1121,425)"/>
<path d="M0 0 C1.32 0.33 2.64 0.66 4 1 C0.14059254 4.85940746 -6.35985738 4.94344336 -11.625 5.125 C-12.40875 5.08375 -13.1925 5.0425 -14 5 C-13.67 4.34 -13.34 3.68 -13 3 C-10.05859375 2.5859375 -10.05859375 2.5859375 -6.4375 2.375 C-5.23996094 2.30023437 -4.04242187 2.22546875 -2.80859375 2.1484375 C-1.88175781 2.09945312 -0.95492188 2.05046875 0 2 C0 1.34 0 0.68 0 0 Z " fill="#1DAC98" transform="translate(1443,532)"/>
<path d="M0 0 C2.42130331 2.42130331 2.52840504 3.80111377 3.125 7.125 C3.29257812 8.03507812 3.46015625 8.94515625 3.6328125 9.8828125 C3.81457031 10.93082031 3.81457031 10.93082031 4 12 C3.01 12.66 2.02 13.32 1 14 C0.04738513 9.23692563 -0.08333357 4.8333472 0 0 Z " fill="#3A3C49" transform="translate(746,439)"/>
<path d="M0 0 C2.64 1.98 5.28 3.96 8 6 C7.67 6.66 7.34 7.32 7 8 C3.2047869 6.50902342 1.38957269 4.24299151 -1 1 C-0.67 0.67 -0.34 0.34 0 0 Z " fill="#1D2335" transform="translate(519,444)"/>
<path d="M0 0 C0.66 0.99 1.32 1.98 2 3 C0.02 5.31 -1.96 7.62 -4 10 C-4.66 9.67 -5.32 9.34 -6 9 C-4.02 6.03 -2.04 3.06 0 0 Z " fill="#1DAA9C" transform="translate(894,463)"/>
<path d="M0 0 C0.66 0.99 1.32 1.98 2 3 C0.8125 6.625 0.8125 6.625 -1 10 C-1.99 10.33 -2.98 10.66 -4 11 C-3.52269162 9.5410574 -3.04308958 8.08286504 -2.5625 6.625 C-2.29566406 5.81289063 -2.02882813 5.00078125 -1.75390625 4.1640625 C-1 2 -1 2 0 0 Z " fill="#383C49" transform="translate(289,405)"/>
<path d="M0 0 C0.99 0.66 1.98 1.32 3 2 C2.01 2.33 1.02 2.66 0 3 C-0.73323796 5.01508358 -0.73323796 5.01508358 -1 7 C-2.32 7.33 -3.64 7.66 -5 8 C-3.35 5.36 -1.7 2.72 0 0 Z " fill="#DEDEDE" transform="translate(949,365)"/>
<path d="M0 0 C0.33 0.66 0.66 1.32 1 2 C0.01 3.485 0.01 3.485 -1 5 C-1.66 5 -2.32 5 -3 5 C-3.33 5.99 -3.66 6.98 -4 8 C-5.32 7.67 -6.64 7.34 -8 7 C-3.25 3 -3.25 3 -1 3 C-0.67 2.01 -0.34 1.02 0 0 Z " fill="#0E9185" transform="translate(1029,480)"/>
<path d="M0 0 C1.32 0.33 2.64 0.66 4 1 C4.66 3.97 5.32 6.94 6 10 C3.25722422 6.80009492 1.3697164 3.99500618 0 0 Z " fill="#E4F4EF" transform="translate(1480,402)"/>
<path d="M0 0 C1.04449911 3.13349732 0.93423645 3.98968256 0 7 C-1.65 7.33 -3.3 7.66 -5 8 C-3.35 5.36 -1.7 2.72 0 0 Z " fill="#1BB0A2" transform="translate(862,508)"/>
<path d="M0 0 C4.31392226 0.4793247 6.16569547 1.7457985 9 5 C6.03 4.01 3.06 3.02 0 2 C0 1.34 0 0.68 0 0 Z " fill="#DEDBDB" transform="translate(530,489)"/>
<path d="M0 0 C0.66 0.99 1.32 1.98 2 3 C1.3125 5.625 1.3125 5.625 0 8 C-0.99 8.33 -1.98 8.66 -3 9 C-2.44271087 5.65626525 -1.64826111 2.96687001 0 0 Z " fill="#EDEBE5" transform="translate(286,406)"/>
<path d="M0 0 C2.97 0.33 5.94 0.66 9 1 C9 1.33 9 1.66 9 2 C5.7 2.33 2.4 2.66 -1 3 C-0.67 2.01 -0.34 1.02 0 0 Z " fill="#DBDADA" transform="translate(353,354)"/>
<path d="M0 0 C0.33 0.99 0.66 1.98 1 3 C-0.9375 6.1875 -0.9375 6.1875 -3 9 C-3.99 8.67 -4.98 8.34 -6 8 C-4.02 5.36 -2.04 2.72 0 0 Z " fill="#CCEEE8" transform="translate(1485,504)"/>
<path d="M0 0 C0.33 0.66 0.66 1.32 1 2 C1.66 2.33 2.32 2.66 3 3 C1.71937515 4.7074998 0.38232443 6.37373596 -1 8 C-1.66 8 -2.32 8 -3 8 C-2.690625 7.236875 -2.38125 6.47375 -2.0625 5.6875 C-1.32106407 3.81210323 -0.63771783 1.91315348 0 0 Z " fill="#D9EEE7" transform="translate(1493,489)"/>
<path d="M0 0 C0 0.66 0 1.32 0 2 C-3.25 3.625 -3.25 3.625 -7 5 C-9.234375 4.0859375 -9.234375 4.0859375 -11 3 C-9.54293274 2.49632243 -8.08429904 1.99717444 -6.625 1.5 C-5.81289063 1.2215625 -5.00078125 0.943125 -4.1640625 0.65625 C-2 0 -2 0 0 0 Z " fill="#0E8F84" transform="translate(1017,490)"/>
<path d="M0 0 C0.33 0 0.66 0 1 0 C1.25 3.25 1.25 3.25 1 7 C-0.32 8.32 -1.64 9.64 -3 11 C-2.01 7.37 -1.02 3.74 0 0 Z " fill="#C3C2C4" transform="translate(787,433)"/>
<path d="M0 0 C0.66 0.33 1.32 0.66 2 1 C0.62845496 3.95409701 -0.98863724 6.44008376 -3 9 C-3.36923077 3.46153846 -3.36923077 3.46153846 -1.5 1.125 C-1.005 0.75375 -0.51 0.3825 0 0 Z " fill="#363840" transform="translate(543,421)"/>
<path d="M0 0 C0.33 0.99 0.66 1.98 1 3 C-2.3 2.34 -5.6 1.68 -9 1 C-4.82091936 -1.08954032 -4.19589427 -1.16552619 0 0 Z " fill="#099B8A" transform="translate(1013,407)"/>
<path d="M0 0 C3.3 0.99 6.6 1.98 10 3 C9.67 3.66 9.34 4.32 9 5 C4.89198233 3.81323934 3.10551666 3.10551666 0 0 Z " fill="#1C1C2E" transform="translate(326,525)"/>
<path d="M0 0 C0.66 0.33 1.32 0.66 2 1 C1.34 3.97 0.68 6.94 0 10 C-0.33 10 -0.66 10 -1 10 C-1.125 3.375 -1.125 3.375 0 0 Z " fill="#1FB198" transform="translate(1494,479)"/>
<path d="M0 0 C0.99 0.495 0.99 0.495 2 1 C2.40729228 3.32156597 2.74438677 5.6568787 3 8 C2.01 8 1.02 8 0 8 C0 5.36 0 2.72 0 0 Z " fill="#E7E6E6" transform="translate(280,464)"/>
<path d="M0 0 C0.99 0 1.98 0 3 0 C1.87548273 2.9719385 0.77706209 5.33440687 -1 8 C-1.04241723 5.66705225 -1.04092937 3.33297433 -1 1 C-0.67 0.67 -0.34 0.34 0 0 Z " fill="#078F84" transform="translate(1322,422)"/>
<path d="M0 0 C0.66 0 1.32 0 2 0 C2.33 0.99 2.66 1.98 3 3 C1.68 3.99 0.36 4.98 -1 6 C-1.66 5.34 -2.32 4.68 -3 4 C-1.625 2 -1.625 2 0 0 Z " fill="#1BABA4" transform="translate(967,359)"/>
</svg>
